:FULLY-SPECIFIED
:FORCE-ALL-JOINTS-BE-3DOF
:DEGREES
544
root 8.21371 13.976 -3.53701 179.254 47.2767 176.902
lfemur -33.4656 -5.84261 -16.4116
ltibia 88.5993 -0 0
lfoot -39.113 -10.4653 0.0160276
ltoes -5.66872 0 0
rfemur -48.7589 -7.71867 -3.44239
rtibia 63.9777 -0 0
rfoot -10.3298 1.18058 0.00457322
rtoes -39.5665 0 0
lowerback 13.1704 1.07318 1.42551
upperback 6.99847 2.56337 7.08024
thorax -0.285601 1.56393 6.30418
lowerneck -2.22595 -16.0003 -6.0945
upperneck 9.26383 -21.7281 8.63142
head 4.76352 -10.4885 2.24106
lclavicle 0 0 0
lhumerus -45.3469 -12.6362 104.284
lradius 56.5865 -0 0
lwrist 30.5215 0 0
lhand -24.7535 -2.85506 0.000259897
lfingers 0 -0 0
lthumb 1.74958 27.1175 0.000249972
rclavicle 0 0 0
rhumerus 5.51351 17.8013 -90.239
rradius 135.883 -0 0
rwrist -46.441 0 0
rhand -30.521 -24.105 0.0184456
rfingers 0 -0 0
rthumb -3.82056 -54.0458 0.0174858
545
root 8.25667 13.9588 -3.50789 179.286 46.9836 176.979
lfemur -33.5259 -5.85761 -15.9597
ltibia 88.7131 -0 0
lfoot -39.2723 -11.4263 0.0133557
ltoes -4.98022 0 0
rfemur -48.872 -7.85634 -3.24522
rtibia 64.4928 -0 0
rfoot -10.4721 0.873645 0.003811
rtoes -39.4086 0 0
lowerback 13.1091 0.916889 1.50426
upperback 6.98948 2.35604 6.98854
thorax -0.234524 1.46112 6.19064
lowerneck -2.09453 -15.8796 -5.99025
upperneck 8.90945 -21.5647 8.69185
head 4.61617 -10.4218 2.2875
lclavicle 0 0 0
lhumerus -45.5648 -12.151 103.868
lradius 56.1307 -0 0
lwrist 30.878 0 0
lhand -24.7182 -2.78484 0.000216581
lfingers 0 -0 0
lthumb 1.78371 27.1874 0.00020831
rclavicle 0 0 0
rhumerus 5.70013 18.4585 -89.9564
rradius 135.495 -0 0
rwrist -45.8911 0 0
rhand -30.1017 -23.685 0.0153711
rfingers 0 -0 0
rthumb -3.41557 -53.6335 0.0145712
546
root 8.29964 13.9417 -3.47878 179.317 46.6904 177.056
lfemur -33.5863 -5.87214 -15.5076
ltibia 88.8269 -0 0
lfoot -39.4315 -12.3872 0.00801265
ltoes -4.29173 0 0
rfemur -48.9856 -7.99363 -3.04772
rtibia 65.008 -0 0
rfoot -10.6143 0.566709 0.00228657
rtoes -39.2508 0 0
lowerback 13.0477 0.760678 1.58317
upperback 6.98082 2.14871 6.89688
thorax -0.183246 1.35842 6.07702
lowerneck -1.96297 -15.7591 -5.88578
upperneck 8.55566 -21.401 8.75113
head 4.4689 -10.355 2.33376
lclavicle 0 0 0
lhumerus -45.7858 -11.6672 103.451
lradius 55.675 -0 0
lwrist 31.2344 0 0
lhand -24.6828 -2.71462 0.000129948
lfingers 0 -0 0
lthumb 1.81784 27.2574 0.000124986
rclavicle 0 0 0
rhumerus 5.89091 19.1148 -89.6704
rradius 135.108 -0 0
rwrist -45.3413 0 0
rhand -29.6823 -23.265 0.00922233
rfingers 0 -0 0
rthumb -3.01061 -53.2212 0.00874244
547
root 8.3426 13.9245 -3.44966 -180.653 46.3973 -182.868
lfemur -33.6469 -5.88619 -15.0556
ltibia 88.9407 0 0
lfoot -39.5906 -13.3481 0
ltoes -3.60323 0 0
rfemur -49.0997 -8.13052 -2.84987
rtibia 65.5231 0 0
rfoot -10.7566 0.259778 0
rtoes -39.0929 0 0
lowerback 12.986 0.604552 1.66225
upperback 6.9725 1.94136 6.80527
thorax -0.131767 1.25582 5.96331
lowerneck -1.83125 -15.6388 -5.78109
upperneck 8.20244 -21.237 8.80926
head 4.32172 -10.2881 2.37983
lclavicle 9.85972e-14 6.36111e-15 0
lhumerus -46.01 -11.1851 103.032
lradius 55.2192 0 0
lwrist 31.5909 0 0
lhand -24.6475 -2.6444 0
lfingers 7.12502 0 0
lthumb 1.85197 27.3273 0
rclavicle 9.85972e-14 6.36111e-15 0
rhumerus 6.08594 19.7702 -89.381
rradius 134.72 0 0
rwrist -44.7914 0 0
rhand -29.263 -22.8451 0
rfingers 7.12502 0 0
rthumb -2.6057 -772.809 0
548
root 8.34456 13.9856 -3.43733 179.441 46.5682 177.155
lfemur -33.3242 -5.53033 -14.9915
ltibia 88.0927 -0 0
lfoot -39.5111 -13.3896 -0.000172508
ltoes -3.70751 0 0
rfemur -48.857 -7.55724 -2.7691
rtibia 64.7606 -0 0
rfoot -10.1459 -0.0324744 -0.00934827
rtoes -38.9808 0 0
lowerback 12.7975 0.467543 1.50424
upperback 6.82904 1.70543 6.64875
thorax -0.157464 1.12385 5.91632
lowerneck -1.81922 -15.572 -5.74194
upperneck 8.14818 -21.1448 8.73815
head 4.28467 -10.2483 2.36691
lclavicle -0 0 0
lhumerus -46.0381 -10.8811 102.795
lradius 54.9003 -0 0
lwrist 31.025 0 0
lhand -24.6854 -2.81498 0.000338887
lfingers 0 -0 0
lthumb 1.81533 27.157 0.000326676
rclavicle -0 0 0
rhumerus 7.093 19.6633 -88.6216
rradius 134.761 -0 0
rwrist -44.6329 0 0
rhand -28.988 -22.5701 0.00396063
rfingers 0 -0 0
rthumb -2.3401 -52.536 0.00379683
549
root 8.34651 14.0468 -3.42499 179.536 46.7391 177.178
lfemur -33.0013 -5.17483 -14.9254
ltibia 87.2447 -0 0
lfoot -39.4317 -13.431 -0.000287514
ltoes -3.81178 0 0
rfemur -48.6139 -6.9843 -2.68598
rtibia 63.9982 -0 0
rfoot -9.53526 -0.32481 -0.0155812
rtoes -38.8687 0 0
lowerback 12.6094 0.330016 1.34668
upperback 6.68624 1.46911 6.49284
thorax -0.183053 0.99185 5.86939
lowerneck -1.80715 -15.5052 -5.70278
upperneck 8.09383 -21.0527 8.66699
head 4.24761 -10.2084 2.35396
lclavicle -0 0 0
lhumerus -46.0674 -10.5772 102.558
lradius 54.5813 -0 0
lwrist 30.4591 0 0
lhand -24.7234 -2.98556 0.000564814
lfingers 0 -0 0
lthumb 1.77869 26.9867 0.000544462
rclavicle -0 0 0
rhumerus 8.09775 19.5439 -87.8649
rradius 134.802 -0 0
rwrist -44.4744 0 0
rhand -28.713 -22.295 0.00660115
rfingers 0 -0 0
rthumb -2.07449 -52.263 0.00632815
550
root 8.34847 14.1079 -3.41266 179.63 46.9099 177.202
lfemur -32.6781 -4.81972 -14.8573
ltibia 86.3967 -0 0
lfoot -39.3522 -13.4725 -0.000345017
ltoes -3.91606 0 0
rfemur -48.3702 -6.41172 -2.60052
rtibia 63.2357 -0 0
rfoot -8.92455 -0.617195 -0.0186978
rtoes -38.7566 0 0
lowerback 12.4217 0.191972 1.18957
upperback 6.5441 1.23241 6.33754
thorax -0.208532 0.859834 5.82252
lowerneck -1.79504 -15.4385 -5.66362
upperneck 8.0394 -20.9607 8.59578
head 4.21055 -10.1686 2.34098
lclavicle -0 0 0
lhumerus -46.098 -10.2734 102.321
lradius 54.2624 -0 0
lwrist 29.8932 0 0
lhand -24.7613 -3.15614 0.000677778
lfingers 0 -0 0
lthumb 1.74205 26.8164 0.000653355
rclavicle -0 0 0
rhumerus 9.09997 19.412 -87.1112
rradius 134.843 -0 0
rwrist -44.3159 0 0
rhand -28.438 -22.02 0.00792144
rfingers 0 -0 0
rthumb -1.80886 -51.99 0.00759384
